<svg width="192" height="192" viewBox="0 0 192 192" fill="none" xmlns="http://www.w3.org/2000/svg">
<path d="M174 48H18C14.6863 48 12 50.6863 12 54V138C12 141.314 14.6863 144 18 144H174C177.314 144 180 141.314 180 138V54C180 50.6863 177.314 48 174 48Z" fill="url(#paint0_linear_22_75)" fill-opacity="0.7" stroke="white" stroke-width="9" stroke-linecap="round" stroke-linejoin="round"/>
<path d="M96 120C109.255 120 120 109.255 120 96C120 82.7452 109.255 72 96 72C82.7452 72 72 82.7452 72 96C72 109.255 82.7452 120 96 120Z" stroke="white" stroke-width="9" stroke-linecap="round" stroke-linejoin="round"/>
<path d="M132 48L180 90" stroke="white" stroke-width="9" stroke-linecap="round" stroke-linejoin="round"/>
<path d="M132 144L180 102" stroke="white" stroke-width="9" stroke-linecap="round" stroke-linejoin="round"/>
<path d="M60 48L12 90" stroke="white" stroke-width="9" stroke-linecap="round" stroke-linejoin="round"/>
<path d="M60 144L12 102" stroke="white" stroke-width="9" stroke-linecap="round" stroke-linejoin="round"/>
<defs>
<linearGradient id="paint0_linear_22_75" x1="96" y1="48" x2="96" y2="144" gradientUnits="userSpaceOnUse">
<stop stop-color="#F4F4F4" stop-opacity="0.8"/>
<stop offset="1" stop-color="#D9D9D9" stop-opacity="0"/>
</linearGradient>
</defs>
</svg>
