<svg width="379" height="379" viewBox="0 0 379 379" fill="none" xmlns="http://www.w3.org/2000/svg">
<g clip-path="url(#clip0_211_535)">
<path d="M134.979 109.125C135.445 110.57 135.825 112.056 136.109 113.54C136.475 115.456 138.152 116.789 140.033 116.789C140.283 116.789 140.536 116.766 140.79 116.717C142.96 116.302 144.382 114.206 143.967 112.036C143.621 110.231 143.159 108.426 142.593 106.67C141.916 104.568 139.665 103.411 137.559 104.091C135.455 104.769 134.3 107.023 134.979 109.125Z" fill="white"/>
<path d="M94.22 78.258C94.216 80.467 96.004 82.261 98.213 82.265C109.763 82.285 121.075 87.814 128.474 97.057C129.264 98.043 130.426 98.557 131.6 98.557C132.476 98.557 133.359 98.27 134.097 97.68C135.822 96.299 136.1 93.782 134.72 92.057C125.821 80.94 112.178 74.288 98.227 74.265C98.224 74.265 98.222 74.265 98.22 74.265C96.014 74.265 94.224 76.051 94.22 78.258Z" fill="white"/>
<path d="M111.556 213.187H93.583C91.374 213.187 89.583 214.978 89.583 217.187C89.583 219.396 91.374 221.187 93.583 221.187H111.556C113.765 221.187 115.556 219.396 115.556 217.187C115.556 214.978 113.765 213.187 111.556 213.187Z" fill="white"/>
<path d="M377.673 242.862L365.406 230.594C357.556 222.744 345.323 221.889 336.516 228.016L328.501 220.002C329.707 220.162 330.52 220.268 330.563 220.268C331.432 220.268 332.283 219.985 332.983 219.454C333.828 218.811 334.382 217.86 334.526 216.809L344.477 143.886C344.776 141.698 343.245 139.681 341.056 139.382L323.86 137.03C312.86 135.529 302.604 142.258 299.299 152.466L260.479 147.171C257.73 146.795 254.987 146.686 252.275 146.82V129.137C252.275 120.714 248.996 112.805 243.049 106.871C237.118 100.926 229.213 97.651 220.789 97.651C212.38 97.651 204.474 100.926 198.527 106.875C192.581 112.824 189.309 120.731 189.316 129.137V150.491H173.844L157.978 134.624C159.138 129.898 159.766 124.965 159.766 119.886C159.766 85.784 132.022 58.04 97.92 58.04C66.845 58.04 41.06 81.08 36.725 110.972L8.235 139.462C2.925 144.772 0 151.833 0 159.344C0 166.854 2.925 173.915 8.236 179.226L72.837 243.827V250.521C72.837 274.778 92.571 294.512 116.827 294.512H123.108L126.267 297.669C141.692 313.094 161.946 320.804 182.207 320.804C202.464 320.804 222.728 313.09 238.148 297.669L277.706 258.255L319.975 300.56C320.756 301.341 321.78 301.732 322.803 301.732C323.826 301.732 324.851 301.341 325.631 300.56L377.673 248.518C379.235 246.957 379.235 244.423 377.673 242.862ZM281.706 250.942V220.663C287.985 219.813 294.044 216.985 298.858 212.17C300.648 210.381 302.175 208.4 303.446 206.261L320.739 223.553L287.528 256.764L281.706 250.942ZM235.134 211.779L217.718 194.363L218.875 185.896C218.88 185.859 218.887 185.824 218.893 185.788C221.228 186.932 223.709 187.772 226.318 188.285C228.267 188.668 230.223 188.857 232.166 188.857C236.836 188.857 241.417 187.745 245.609 185.62L252.837 195.13C250.629 196.651 248.537 198.376 246.601 200.313L235.134 211.779ZM253.726 154.773C254.242 157.53 254.231 160.323 253.686 163.095C252.553 168.86 249.243 173.838 244.365 177.114C239.487 180.39 233.628 181.572 227.861 180.436C225.389 179.95 223.073 179.069 220.949 177.818C223.319 171.633 227.357 166.21 232.76 162.102C238.888 157.443 246.175 154.925 253.726 154.773ZM277.706 187.427C271.465 187.427 265.428 188.73 259.888 191.186L252.224 181.103C257.013 176.791 260.271 171.075 261.536 164.639C262.138 161.577 262.253 158.497 261.904 155.44L284.029 158.458L280.075 187.495C279.289 187.452 278.5 187.427 277.706 187.427ZM277.706 195.427C284.71 195.427 291.404 197.423 297.153 201.131C296.12 203.108 294.802 204.913 293.202 206.513C284.626 215.088 270.672 215.089 262.096 206.513C260.503 204.92 259.195 203.133 258.172 201.186C263.941 197.442 270.667 195.427 277.706 195.427ZM327.142 211.763L320.815 210.898L329.691 145.902L336.011 146.766L327.142 211.763ZM301.831 160.885C304.03 161.172 306.036 159.651 306.334 157.462C307.376 149.826 314.179 144.381 321.758 144.871L313.54 205.041L308.811 200.312C302.985 194.486 295.811 190.503 287.994 188.638L291.956 159.537L301.831 160.885ZM227.919 155.733C222.761 159.654 218.621 164.558 215.672 170.117L197.317 151.762C197.317 151.762 197.327 128.509 197.339 128.198H244.252C244.264 128.511 244.275 147.968 244.275 147.968C238.418 149.37 232.859 151.978 227.919 155.733ZM220.79 105.652C227.073 105.652 232.967 108.091 237.393 112.529C239.628 114.758 241.356 117.362 242.522 120.198H199.067C200.231 117.365 201.956 114.763 204.187 112.531C208.621 108.095 214.518 105.652 220.79 105.652ZM192.733 158.491C192.733 158.491 212.218 177.934 212.414 178.07C211.76 180.258 211.264 182.509 210.95 184.815L210.616 187.262L181.846 158.492H192.733V158.491ZM229.478 217.436L217.162 229.751L146.062 158.652C149.82 153.995 152.913 148.785 155.206 143.163L229.478 217.436ZM151.768 119.886C151.768 121.748 151.673 123.588 151.487 125.402C138.367 138.151 120.648 143.54 105.37 139.579C105.077 134.564 103.008 129.885 99.425 126.304C95.554 122.432 90.407 120.3 84.933 120.3C84.055 120.3 83.189 120.375 82.332 120.483C74.801 104.147 79.751 82.849 94.939 67.662C95.501 67.1 96.052 66.577 96.596 66.075C97.038 66.064 97.478 66.041 97.923 66.041C127.612 66.041 151.768 90.196 151.768 119.886ZM84.933 128.3C88.27 128.3 91.409 129.6 93.769 131.96C96.129 134.32 97.429 137.459 97.429 140.797C97.429 144.135 96.129 147.273 93.769 149.633C91.409 151.993 88.27 153.293 84.933 153.293C81.595 153.293 78.456 151.993 76.096 149.632C73.736 147.273 72.436 144.135 72.436 140.797C72.436 137.459 73.736 134.32 76.096 131.96C78.456 129.6 81.595 128.3 84.933 128.3ZM84.094 67.849C70.911 84.551 67.208 105.887 74.708 123.049C73.171 123.938 71.729 125.015 70.44 126.305C66.568 130.176 64.436 135.324 64.436 140.798C64.436 146.272 66.569 151.42 70.44 155.29C74.311 159.162 79.458 161.294 84.933 161.294C90.408 161.294 95.554 159.162 99.425 155.291C101.644 153.072 103.269 150.426 104.272 147.547C107.945 148.419 111.721 148.853 115.535 148.853C126.837 148.853 138.452 145.1 148.591 138.101C141.108 158.855 121.223 173.734 97.923 173.734C68.232 173.734 44.076 149.579 44.076 119.887C44.075 94.976 61.083 73.969 84.094 67.849ZM72.837 193.034L19.407 139.604L36.15 122.861C37.287 146.761 52.059 167.137 72.836 176.397V193.034H72.837ZM30.293 189.97L44.377 175.886L50.685 182.194L36.601 196.278L30.293 189.97ZM8 159.344C8 154.037 10.048 149.05 13.758 145.267L38.721 170.23L24.637 184.314L13.893 173.57C10.093 169.77 8 164.717 8 159.344ZM42.257 201.934L56.341 187.85L72.837 204.346V232.514L42.257 201.934ZM81.389 256.756C89.106 253.23 98.251 254.78 104.39 260.918C110.869 267.397 112.158 277.51 107.83 285.373C94.295 281.876 83.832 270.679 81.389 256.756ZM116.176 286.496C119.936 277.64 118.974 267.492 113.526 259.48L133.46 239.545H157.162C157.476 239.545 157.787 239.557 158.099 239.569V286.489C157.788 286.5 116.393 286.5 116.176 286.496ZM180.646 263.029C180.646 272.815 174.628 281.218 166.099 284.741V241.315C174.627 244.839 180.646 253.243 180.646 263.029ZM232.492 292.013C205.624 318.878 162.432 319.712 134.553 294.512H157.162C174.522 294.512 188.645 280.389 188.645 263.029C188.645 245.669 174.522 231.545 157.162 231.545H135.804V187.185C135.804 184.976 134.013 183.185 131.804 183.185C129.595 183.185 127.804 184.976 127.804 187.185V233.889L108.156 253.537C100.478 247.105 90.139 245.255 80.837 248.385V179.314C86.268 180.877 91.995 181.733 97.922 181.733C114.481 181.733 129.529 175.179 140.641 164.544L211.505 235.407L201.814 245.098C200.251 246.66 200.251 249.193 201.814 250.754C203.375 252.317 205.91 252.317 207.47 250.754L251.892 206.333C253.151 208.439 254.664 210.395 256.438 212.169C261.283 217.014 267.387 219.845 273.706 220.676V250.942L232.492 292.013ZM293.185 262.419L326.396 229.209L333.438 236.251C335.001 237.814 337.534 237.814 339.094 236.251C344.543 230.804 353.251 230.583 358.983 235.558L312.634 281.906L293.185 262.419ZM322.803 292.075L318.29 287.562L364.676 241.177L369.188 245.69L322.803 292.075Z" fill="white"/>
</g>
<defs>
<clipPath id="clip0_211_535">
<rect width="378.845" height="378.845" fill="white"/>
</clipPath>
</defs>
</svg>
