<svg width="675" height="675" viewBox="0 0 675 675" fill="none" xmlns="http://www.w3.org/2000/svg">
<mask id="mask0_8_79" style="mask-type:alpha" maskUnits="userSpaceOnUse" x="0" y="0" width="675" height="675">
<circle cx="337.5" cy="337.5" r="337.5" fill="white"/>
</mask>
<g mask="url(#mask0_8_79)">
<rect x="-62" y="-16" width="800" height="800" fill="url(#paint0_linear_8_79)"/>
<path d="M553.215 384.733C580.847 528.142 508.387 660.441 394.284 682.426C280.181 704.411 163.752 608.507 136.121 465.097C108.489 321.688 180.949 189.389 295.052 167.404C409.155 145.419 525.583 241.323 553.215 384.733Z" fill="#58595B" stroke="black" stroke-width="12"/>
<path d="M426.524 106.918C424.285 106.62 419.837 107.637 413.042 111.377C406.549 114.951 398.873 120.468 390.594 127.557C374.054 141.72 355.655 161.686 340.203 183.514C324.705 205.406 312.479 228.74 307.814 249.638C303.165 270.464 306.184 287.747 319.449 299.592C350.434 327.26 390.601 357.844 424.698 368.455C441.682 373.741 456.02 373.718 466.921 367.281C477.755 360.885 486.858 347.159 491.104 321.145C499.684 268.575 491 215.485 475.948 175.008C468.424 154.774 459.387 137.908 450.316 125.942C445.78 119.958 441.331 115.327 437.174 112.112C432.979 108.867 429.388 107.298 426.524 106.918Z" fill="#58595B" stroke="black" stroke-width="12"/>
<path d="M432.721 168.842C420.301 166.592 373.177 229.854 391.714 253.025C410.251 276.196 441.26 305.623 449.585 260.951C457.911 216.279 445.14 171.091 432.721 168.842Z" fill="#414142"/>
<path d="M151.627 161.065C154.221 159.87 159.125 159.479 166.678 160.919C173.989 162.313 182.87 165.241 192.7 169.521C212.343 178.074 235.091 191.724 255.532 208.04C276.026 224.399 293.798 243.117 303.919 261.66C314.015 280.159 316.045 297.489 307.194 312.444C286.529 347.363 258.218 387.597 229.727 407.264C215.545 417.053 202.313 421.065 190.398 418.109C178.522 415.163 166.056 404.818 154.494 381.454C131.108 334.194 122.584 282.077 124.177 239.904C124.974 218.814 128.292 200.452 133.379 186.561C138.569 172.392 145.155 164.045 151.627 161.065Z" fill="#58595B" stroke="black" stroke-width="12"/>
<path d="M165.946 219.82C177.36 214.433 239.252 263.342 227.343 290.522C215.435 317.701 193.099 354.151 173.495 313.156C153.892 272.16 154.532 225.207 165.946 219.82Z" fill="#414142"/>
<ellipse cx="343.144" cy="421.682" rx="206.298" ry="252.206" transform="rotate(-10.9059 343.144 421.682)" fill="#58595B"/>
<mask id="mask1_8_79" style="mask-type:alpha" maskUnits="userSpaceOnUse" x="124" y="158" width="442" height="534">
<path d="M553.215 384.733C580.847 528.142 508.387 660.441 394.284 682.426C280.181 704.411 163.752 608.507 136.121 465.097C108.489 321.688 180.949 189.389 295.052 167.404C409.155 145.419 525.583 241.323 553.215 384.733Z" fill="#D9D9D9" stroke="#72523D" stroke-width="12"/>
</mask>
<g mask="url(#mask1_8_79)">
<path d="M619.265 435.876C638.189 537.98 537.651 642.227 394.709 668.72C251.766 695.213 120.548 633.919 101.624 531.815C89.7617 467.811 141.231 448.295 199 406C227 385.5 260 328.5 330 347.5C373.517 314.163 406 330 496.5 362C580 388.5 619.265 416.786 619.265 435.876Z" fill="white"/>
</g>
<path d="M396.299 400.736C407.294 443.251 388.805 482.078 358.606 489.888C328.406 497.698 293.412 472.703 282.417 430.188C271.422 387.674 289.911 348.847 320.11 341.037C350.309 333.227 385.304 358.222 396.299 400.736Z" fill="#F08FA0" stroke="black" stroke-width="12"/>
<ellipse cx="296.542" cy="405.289" rx="45.2892" ry="39.1763" transform="rotate(-22 296.542 405.289)" fill="white"/>
<ellipse cx="384.047" cy="385.789" rx="47.7321" ry="45.1998" transform="rotate(-22 384.047 385.789)" fill="white"/>
<ellipse cx="335.5" cy="370.5" rx="54.5" ry="31.5" fill="white"/>
<path d="M338.858 399C336.858 449 283.858 456 261.858 433.5" stroke="black" stroke-width="12" stroke-linecap="round"/>
<path d="M338.858 399.467C359.84 444.895 411.484 431.08 423.199 401.874" stroke="black" stroke-width="12" stroke-linecap="round"/>
<path d="M383.781 356.32C388.075 374.919 368.673 399.963 340.358 406.5C312.043 413.037 285.538 398.592 281.244 379.993C276.95 361.394 296.423 341.017 324.738 334.48C353.052 327.943 379.487 337.721 383.781 356.32Z" fill="black"/>
<path d="M237 194L245 200" stroke="black" stroke-width="12" stroke-linecap="round"/>
<path d="M349.273 171.202L343.204 179.149" stroke="black" stroke-width="12" stroke-linecap="round"/>
<path d="M492.949 428.892L494.402 426.772L493.87 424.258C488.772 400.158 495.76 368.605 521.707 348.218C534.886 337.863 547.656 333.388 558.982 333.187C570.273 332.986 580.583 337.015 589.021 344.491C619.168 371.2 616.6 407.148 603.744 442.107C597.35 459.493 588.572 476.113 580.588 490.425C578.93 493.397 577.285 496.308 575.703 499.107C573.53 502.95 571.477 506.581 569.677 509.867C566.653 515.388 564.059 520.434 562.496 524.587C558.53 532.392 551.25 547.06 542.9 563.885C525.251 599.444 502.823 644.633 496.811 654.987C492.287 662.779 486.768 672.562 482.39 680.381C480.634 683.517 479.059 686.341 477.802 688.6L386.589 632.434C392.754 621.821 396.852 616.041 399.727 612.809C401.335 611.001 402.434 610.137 403.156 609.681C403.826 609.258 404.372 609.053 405.248 608.783C405.35 608.751 405.465 608.717 405.589 608.679C406.504 608.405 407.994 607.958 409.548 607.14C411.411 606.16 413.204 604.767 415.112 602.72C418.766 598.8 423.244 592.025 429.787 579.838C433.394 573.117 437.275 562.873 441.454 551.034C443.373 545.596 445.32 539.925 447.352 534.004C449.896 526.594 452.573 518.794 455.499 510.572C465.891 481.365 478.191 450.425 492.949 428.892Z" fill="white" stroke="black" stroke-width="12"/>
<path d="M493.125 462.05C483.152 486.625 486.003 490.511 482.327 499.683C476.172 515.04 473.897 513.459 469.404 512.38C462.227 510.657 460.935 513.17 473 481.5C477 471 482.5 459.5 486 452.5C487.333 449.835 494 437 499.5 430C501.5 426.5 499.804 427.327 500 424C503.5 433.5 503.098 437.475 493.125 462.05Z" fill="#58595B"/>
<path d="M584.384 417.479C583.049 425.053 572.309 429.49 560.397 427.389C548.484 425.289 539.91 417.446 541.246 409.872C541.246 405.074 546.048 401.832 553.784 400.285C558.941 398.738 561.004 393.855 568.224 395.128C575.445 396.401 573.905 402.348 577.508 405.442C582.665 409.872 585.151 413.129 584.384 417.479Z" fill="black"/>
<ellipse cx="570.5" cy="377.5" rx="10.5" ry="11.5" fill="black"/>
<ellipse cx="545.576" cy="386.126" rx="12.2376" ry="9.43256" transform="rotate(61.5 545.576 386.126)" fill="black"/>
<ellipse cx="588.559" cy="392.697" rx="7.60751" ry="11.4113" transform="rotate(19 588.559 392.697)" fill="black"/>
<ellipse cx="262.554" cy="283.71" rx="29.1448" ry="37.7972" transform="rotate(-35 262.554 283.71)" fill="white"/>
<ellipse cx="361.602" cy="263.954" rx="29.1448" ry="37.7972" transform="rotate(18 361.602 263.954)" fill="white"/>
<path d="M256 358.5C236.5 381.5 229.57 388.972 216.559 383.582C203.548 378.193 198.825 359.76 206.011 342.412C213.197 325.064 229.57 315.369 242.581 320.758C255.593 326.148 258 356.141 256 358.5Z" fill="black"/>
<path d="M397.688 330.747C424.261 345 433.447 349.412 443.577 339.629C453.708 329.846 451.346 310.965 438.302 297.458C425.258 283.95 406.471 280.931 396.341 290.714C386.21 300.497 394.963 329.285 397.688 330.747Z" fill="black"/>
<rect x="99" y="487" width="521" height="243" fill="#F09819"/>
<line x1="616" y1="488" x2="100" y2="488" stroke="black" stroke-width="12" stroke-linecap="round"/>
<path d="M236.858 463.462C236.858 474.15 230.808 484.392 219.891 492.195C208.986 499.991 193.614 505 176.358 505C159.102 505 143.73 499.991 132.825 492.195C121.908 484.392 115.858 474.15 115.858 463.462C115.858 447.433 121.792 435.403 132.409 427.21C143.24 418.852 159.596 414 181.146 414C202.101 414 215.835 420.798 224.366 429.971C232.997 439.252 236.858 451.565 236.858 463.462Z" fill="white" stroke="black" stroke-width="12"/>
<path d="M161.358 482C161.358 494 171.858 503.5 171.858 503.5" stroke="black" stroke-width="12" stroke-linecap="round"/>
<path d="M205.276 479.463C209.189 487.855 204.944 497.923 204.944 497.923" stroke="black" stroke-width="12" stroke-linecap="round"/>
</g>
<defs>
<linearGradient id="paint0_linear_8_79" x1="331" y1="493.5" x2="331" y2="0.999987" gradientUnits="userSpaceOnUse">
<stop stop-color="#F09819"/>
<stop offset="1" stop-color="#EDDE5D"/>
</linearGradient>
</defs>
</svg>
