<svg width="392" height="461" viewBox="0 0 392 461" fill="none" xmlns="http://www.w3.org/2000/svg">
<path fill-rule="evenodd" clip-rule="evenodd" d="M334.921 3.36739C318.875 -12.6104 281.144 40.9376 267.532 61.6233C254.926 59.9021 242.004 59.6805 229.129 61.2613C207.056 63.9715 187.912 71.4529 171.881 82.0002C147.9 68.6768 96.1333 42.7317 89.4999 63C72.6753 114.408 100.63 151.613 114.907 166.425C111.811 182.268 112.116 197.843 116 211.5C119.174 228.29 124.637 241.395 131.919 251.545C84.9834 277.585 70.5 351.5 70.5 351.5C70.5 351.5 70.5 312.5 35 312.5C2.84105 312.5 1.4557 333.836 0.736386 344.915C0.661656 346.066 0.594114 347.106 0.5 348C5.5 395 26 404 59.5 412C60.7561 415.559 61.7054 419.03 62.6094 422.336C66.0236 434.82 68.7916 444.942 85 448.5C99.6957 449.666 113.113 451.567 126.742 453.498C171.543 459.845 218.641 466.518 321 448.5C323.271 447.125 325.572 447.045 327.736 446.97C331.883 446.827 335.529 446.7 337.5 437.5C340.5 423.5 337.5 398 337.5 398C337.5 398 349 379 346.5 340C346.944 339.334 347.605 338.46 348.43 337.367C356.602 326.547 380.914 294.356 370.754 231.961C388.813 211.639 396.804 185.966 387 157C384.809 139.155 374.74 121.468 359.497 106.192C365.454 86.0629 372.701 40.9866 334.921 3.36739Z" fill="white"/>
</svg>
