<svg width="506" height="585" viewBox="0 0 506 585" fill="none" xmlns="http://www.w3.org/2000/svg">
<path d="M101.84 575.906C135.13 580.229 147.078 581.78 255 581.999C362.922 581.78 374.87 580.229 408.16 575.906L411.037 575.533C430.156 573.057 446.571 563.888 458.213 551.964C469.858 540.038 476.69 525.394 476.69 512.024C476.69 506.591 477.062 491.641 477.582 470.765C478.353 439.763 479.45 395.694 480.136 350.322C481.285 274.361 481.283 194.778 476.695 166.571C472.138 138.552 450.908 126.16 431.001 114.85L430.209 114.4C420.553 108.917 411.227 103.62 404.454 96.8567C397.573 89.9847 393.331 81.6061 393.947 70.0001H255.306H254.694H116.053C116.669 81.6061 112.427 89.9847 105.546 96.8567C98.7729 103.62 89.4468 108.917 79.7913 114.4L78.9992 114.85C59.0919 126.16 37.8623 138.552 33.3048 166.571C28.7169 194.778 28.7145 274.361 29.8637 350.322C30.55 395.694 31.6469 439.763 32.4185 470.765C32.9381 491.641 33.3102 506.591 33.3102 512.024C33.3101 525.394 40.1415 540.038 51.7867 551.964C63.429 563.888 79.8437 573.057 98.9634 575.533L101.84 575.906Z" fill="url(#paint0_linear_20_888)" fill-opacity="0.3"/>
<path d="M254.997 583.499H255.003C362.944 583.28 374.968 581.729 408.353 577.394L411.23 577.021C430.709 574.498 447.427 565.158 459.286 553.012C471.13 540.883 478.19 525.882 478.19 512.024C478.19 506.615 478.561 491.694 479.081 470.802L479.081 470.792C479.853 439.791 480.95 395.72 481.636 350.345C482.211 312.359 482.498 273.456 482.067 240.519C481.637 207.622 480.491 180.562 478.176 166.33C473.49 137.52 451.583 124.818 431.742 113.546L431.001 114.85L431.742 113.546L430.95 113.096L430.209 114.4L430.949 113.096C421.247 107.585 412.116 102.388 405.514 95.7953C398.886 89.1764 394.855 81.1972 395.445 70.0796C395.467 69.6685 395.318 69.2666 395.035 68.9679C394.752 68.6692 394.358 68.5001 393.947 68.5001H255.306H254.694H116.053C115.642 68.5001 115.248 68.6692 114.965 68.9679C114.682 69.2666 114.533 69.6685 114.555 70.0796C115.145 81.1972 111.114 89.1764 104.486 95.7953C97.8843 102.388 88.7532 107.585 79.0505 113.096L79.0505 113.096L78.2584 113.546L78.2582 113.546C58.4172 124.818 36.5104 137.52 31.8243 166.33C29.5094 180.562 28.3632 207.622 27.933 240.519C27.5023 273.456 27.7892 312.359 28.3638 350.345C29.0503 395.724 30.1473 439.799 30.9189 470.8L30.9189 470.802C31.4389 491.694 31.8102 506.615 31.8102 512.024C31.8101 525.882 38.8703 540.883 50.7135 553.012C62.5728 565.158 79.291 574.498 98.7708 577.021L101.647 577.394C135.032 581.729 147.056 583.28 254.997 583.499Z" stroke="white" stroke-opacity="0.19" stroke-width="3" stroke-linejoin="round"/>
<path d="M106.364 147C106.364 147 83.8641 171 83.8641 218C83.8641 265 83.8641 224 83.8641 248.5C83.8641 262.642 82.4265 436.667 83.2598 522C83.2598 531 84.7598 544 98.7598 544C126.76 544 127.26 544 150.26 544C155.927 543.5 165.26 544 165.26 522C165.26 515.739 164.26 350.035 164.26 248.5C164.26 221.5 161.156 189 174.76 164.5L106.364 147Z" fill="url(#paint1_linear_20_888)" fill-opacity="0.1"/>
<path d="M394.551 147C394.551 147 417.051 171 417.051 218C417.051 265 417.051 224 417.051 248.5C417.051 262.642 418.489 436.667 417.655 522C417.655 531 416.155 544 402.155 544C374.155 544 373.655 544 350.655 544C344.989 543.5 335.655 544 335.655 522C335.655 515.739 336.655 350.035 336.655 248.5C336.655 221.5 339.76 189 326.155 164.5L394.551 147Z" fill="url(#paint2_linear_20_888)" fill-opacity="0.1"/>
<path fill-rule="evenodd" clip-rule="evenodd" d="M114.298 67C114.166 67 114.039 67.0527 113.945 67.1464C113.851 67.2402 113.798 67.3674 113.798 67.5V68.0266C113.798 68.0374 113.799 68.0483 113.799 68.0591C114.546 79.5159 110.457 87.6656 103.743 94.3701C97.1383 100.966 88.0026 106.159 78.2758 111.683L77.5521 112.094C57.6569 123.398 35.7726 136.111 31.0966 164.859C28.7883 179.051 27.6387 206.082 27.2076 239.021C26.7763 271.975 27.0641 310.879 27.6384 348.842C28.3253 394.245 29.4223 438.316 30.1938 469.308C30.7132 490.174 31.0848 505.101 31.0848 510.524C31.0848 524.317 38.1149 539.294 49.9707 551.437C61.8359 563.589 78.6072 572.978 98.2071 575.517C99.122 575.635 100.02 575.752 100.903 575.866L101.026 575.882C134.456 580.223 146.456 581.777 254.195 581.999V582L254.499 581.999H254.501L254.805 582V581.999C362.544 581.777 374.544 580.223 407.974 575.882L410.793 575.517C430.393 572.978 447.164 563.589 459.029 551.437C470.885 539.294 477.915 524.317 477.915 510.524C477.915 505.101 478.287 490.174 478.806 469.309L478.807 469.274C479.578 438.284 480.675 394.228 481.362 348.842C481.936 310.879 482.224 271.975 481.792 239.021C481.361 206.082 480.212 179.051 477.903 164.859C473.227 136.111 451.343 123.398 431.448 112.094L430.724 111.683C420.997 106.159 411.862 100.966 405.257 94.3701C398.533 87.6554 394.287 79.9773 395.033 68.5326C395.033 68.5326 395.034 68.5279 395.034 68.5207L395.038 68.4874L395.051 68.3847C395.06 68.3054 395.072 68.2038 395.08 68.1006C395.087 68.0013 395.092 67.8811 395.083 67.7689C395.078 67.7132 395.068 67.6417 395.046 67.568C395.026 67.5029 394.978 67.3784 394.861 67.277C394.645 67.0912 394.365 67 394.09 67H114.298ZM407.822 574.894C374.442 579.227 362.481 580.78 254.5 580.999C146.519 580.78 134.558 579.227 101.178 574.894L101.031 574.875C100.148 574.76 99.2506 574.644 98.3356 574.525C78.9757 572.018 62.4067 562.742 50.6862 550.738C38.9623 538.731 32.0848 523.992 32.0848 510.524C32.0848 505.087 31.713 490.15 31.1941 469.307L31.1935 469.284C30.422 438.291 29.3251 394.225 28.6383 348.827C28.0641 310.868 27.7764 271.974 28.2075 239.034C28.6388 206.081 29.7893 179.126 32.0836 165.02C36.6739 136.799 58.1067 124.292 78.0461 112.964L78.8104 112.53C88.4902 107.032 97.74 101.778 104.45 95.0777C111.334 88.2037 115.562 79.7872 114.798 68.0104V68H394.084L394.082 68.0273C394.077 68.1056 394.067 68.1878 394.058 68.264L394.054 68.3001C394.047 68.3575 394.038 68.4243 394.035 68.4675C393.266 80.2649 397.673 88.2107 404.55 95.0777C411.26 101.779 420.51 107.032 430.19 112.53L430.954 112.964C450.893 124.292 472.326 136.799 476.916 165.02C479.211 179.126 480.361 206.081 480.792 239.034C481.224 271.974 480.936 310.868 480.362 348.827C479.675 394.213 478.578 438.269 477.807 469.26L477.806 469.284L477.806 469.295L477.806 469.301C477.806 469.307 477.806 469.314 477.806 469.321C477.287 490.156 476.915 505.088 476.915 510.524C476.915 523.992 470.038 538.731 458.314 550.738C446.593 562.742 430.024 572.018 410.664 574.525L407.822 574.894ZM125.867 70.5H382.133C382.404 70.5 382.624 70.7239 382.624 71C382.624 78.932 378.603 85.0511 374.628 89.1633C372.637 91.222 370.648 92.7885 369.157 93.8407C368.56 94.2623 368.041 94.6017 367.634 94.8577L367.734 94.8898C368.495 95.1343 369.61 95.4995 371.03 95.9829C373.868 96.9496 377.921 98.3895 382.784 100.283C392.508 104.069 405.478 109.672 418.452 116.937C431.423 124.199 444.42 133.134 454.18 143.593C463.939 154.051 470.5 166.074 470.5 179.5V474.5C470.5 508.838 461.393 532.109 446.727 546.794C432.064 561.476 411.918 567.5 389.988 567.5C368.103 567.5 344.261 564.392 321.683 561.289C320.285 561.097 318.892 560.905 317.505 560.714L317.43 560.704L317.406 560.7C296.402 557.804 276.699 555.087 260.873 555.087C258.771 555.087 256.472 555.199 254 555.406C251.528 555.199 249.229 555.087 247.127 555.087C231.301 555.087 211.598 557.804 190.594 560.7L190.57 560.704L190.483 560.716C189.1 560.906 187.711 561.098 186.317 561.289C163.739 564.392 139.897 567.5 118.012 567.5C96.0824 567.5 75.9362 561.476 61.2728 546.794C46.6069 532.109 37.5 508.838 37.5 474.5L37.5 179.5C37.5 166.074 44.0609 154.051 53.8204 143.593C63.5805 133.134 76.5772 124.199 89.5475 116.937C102.522 109.672 115.492 104.069 125.216 100.283C130.079 98.3895 134.132 96.9496 136.97 95.9829C138.39 95.4995 139.505 95.1343 140.266 94.8898L140.366 94.8577C139.959 94.6017 139.44 94.2623 138.843 93.8407C137.352 92.7885 135.363 91.222 133.372 89.1633C129.397 85.0511 125.376 78.932 125.376 71C125.376 70.7239 125.596 70.5 125.867 70.5ZM254 554.403C256.467 554.197 258.766 554.087 260.873 554.087C276.768 554.087 296.535 556.813 317.51 559.706C318.939 559.903 320.375 560.1 321.814 560.298C344.401 563.402 368.179 566.5 389.988 566.5C411.75 566.5 431.615 560.524 446.039 546.081C460.461 531.641 469.518 508.662 469.518 474.5V179.5C469.518 166.426 463.131 154.636 453.468 144.282C443.805 133.928 430.906 125.051 417.979 117.813C405.057 110.578 392.131 104.993 382.433 101.217C377.585 99.3293 373.545 97.8941 370.718 96.9312C369.305 96.4498 368.195 96.0864 367.439 95.8436C367.06 95.7221 366.771 95.6308 366.576 95.57L366.406 95.5171L366.356 95.5016L366.3 95.4846L366.283 95.4794C366.283 95.4794 366.282 95.4791 366.423 95L366.192 94.5585L366.201 94.5536L366.232 94.5365L366.289 94.5047L366.358 94.4652C366.47 94.4013 366.634 94.3047 366.845 94.1758C367.267 93.9181 367.871 93.5314 368.598 93.0187C370.052 91.9927 371.991 90.4655 373.928 88.4617C377.721 84.5378 381.472 78.8274 381.636 71.5H126.364C126.528 78.8274 130.279 84.5378 134.072 88.4617C136.009 90.4655 137.948 91.9927 139.402 93.0187C140.129 93.5314 140.733 93.9181 141.155 94.1758C141.366 94.3047 141.53 94.4013 141.642 94.4652L141.711 94.5047L141.768 94.5365L141.799 94.5536L141.806 94.5576L141.808 94.5585L141.577 95C141.718 95.4791 141.717 95.4794 141.717 95.4794L141.713 95.4804L141.7 95.4846L141.644 95.5016C141.595 95.5168 141.521 95.5396 141.424 95.57C141.229 95.6308 140.94 95.7221 140.561 95.8436C139.805 96.0864 138.695 96.4498 137.282 96.9312C134.455 97.8941 130.415 99.3293 125.567 101.217C115.869 104.993 102.943 110.578 90.0205 117.813C77.0943 125.051 64.1945 133.928 54.5321 144.282C44.8693 154.636 38.4819 166.426 38.4819 179.5L38.4819 474.5C38.4819 508.662 47.5393 531.641 61.9611 546.081C76.3853 560.524 96.2498 566.5 118.012 566.5C139.821 566.5 163.599 563.402 186.186 560.298C187.625 560.1 189.061 559.903 190.49 559.706C211.465 556.813 231.232 554.087 247.127 554.087C249.234 554.087 251.533 554.197 254 554.403Z" fill="url(#paint3_linear_20_888)" fill-opacity="0.26"/>
<path fill-rule="evenodd" clip-rule="evenodd" d="M254.5 580.999C362.481 580.78 374.442 579.227 407.822 574.894L410.664 574.525C430.024 572.018 446.593 562.742 458.314 550.738C470.038 538.731 476.915 523.992 476.915 510.524C476.915 505.088 477.287 490.156 477.806 469.321L477.806 469.301L477.806 469.295L477.806 469.284L477.807 469.26C478.578 438.269 479.675 394.213 480.362 348.827C480.936 310.868 481.224 271.974 480.792 239.034C480.361 206.081 479.211 179.126 476.916 165.02C472.326 136.799 450.893 124.292 430.954 112.964L430.19 112.53C420.51 107.032 411.26 101.779 404.55 95.0777C397.673 88.2107 393.266 80.2649 394.035 68.4675C394.038 68.4243 394.047 68.3575 394.054 68.3001L394.058 68.264C394.067 68.1878 394.077 68.1056 394.082 68.0273L394.084 68H114.798V68.0104C115.562 79.7872 111.334 88.2037 104.45 95.0777C97.74 101.778 88.4902 107.032 78.8104 112.53L78.0461 112.964C58.1067 124.292 36.6739 136.799 32.0836 165.02C29.7893 179.126 28.6388 206.081 28.2075 239.034C27.7764 271.974 28.0641 310.868 28.6383 348.827C29.3251 394.225 30.422 438.291 31.1935 469.284L31.1941 469.307C31.713 490.15 32.0848 505.087 32.0848 510.524C32.0848 523.992 38.9623 538.731 50.6862 550.738C62.4067 562.742 78.9757 572.018 98.3356 574.525C99.2506 574.644 100.148 574.76 101.031 574.875L101.178 574.894C134.558 579.227 146.519 580.78 254.5 580.999ZM382.133 70.5C382.404 70.5 382.624 70.7239 382.624 71C382.624 78.932 378.603 85.0511 374.628 89.1633C372.637 91.222 370.648 92.7885 369.157 93.8407C368.56 94.2623 368.041 94.6017 367.634 94.8577L367.734 94.8898C368.495 95.1343 369.61 95.4995 371.03 95.9829C373.868 96.9496 377.921 98.3895 382.784 100.283C392.508 104.069 405.478 109.672 418.452 116.937C431.423 124.199 444.42 133.134 454.18 143.593C463.939 154.051 470.5 166.074 470.5 179.5V474.5C470.5 508.838 461.393 532.109 446.727 546.794C432.064 561.476 411.918 567.5 389.988 567.5C368.103 567.5 344.261 564.392 321.683 561.289C320.285 561.097 318.892 560.905 317.505 560.714L317.43 560.704L317.406 560.7C296.402 557.804 276.699 555.087 260.873 555.087C258.771 555.087 256.472 555.199 254 555.406C251.528 555.199 249.229 555.087 247.127 555.087C231.301 555.087 211.598 557.804 190.594 560.7L190.57 560.704L190.483 560.716C189.1 560.906 187.711 561.098 186.317 561.289C163.739 564.392 139.897 567.5 118.012 567.5C96.0824 567.5 75.9362 561.476 61.2728 546.794C46.6069 532.109 37.5 508.838 37.5 474.5L37.5 179.5C37.5 166.074 44.0609 154.051 53.8204 143.593C63.5805 133.134 76.5772 124.199 89.5475 116.937C102.522 109.672 115.492 104.069 125.216 100.283C130.079 98.3895 134.132 96.9496 136.97 95.9829C138.39 95.4995 139.505 95.1343 140.266 94.8898L140.366 94.8577C139.959 94.6017 139.44 94.2623 138.843 93.8407C137.352 92.7885 135.363 91.222 133.372 89.1633C129.397 85.0511 125.376 78.932 125.376 71C125.376 70.7239 125.596 70.5 125.867 70.5H382.133Z" fill="url(#paint4_linear_20_888)" fill-opacity="0.26"/>
<path fill-rule="evenodd" clip-rule="evenodd" d="M407.866 30.6579V37.7876C407.866 41.944 339.395 45.3134 254.933 45.3134C170.47 45.3134 102 41.944 102 37.7876V30.6579C102 30.3903 102.284 30.126 102.837 29.8657C110.881 33.6497 175.907 36.5993 254.933 36.5993C333.958 36.5993 398.984 33.6497 407.029 29.8657C407.582 30.126 407.866 30.3903 407.866 30.6579Z" fill="#33190B"/>
<path fill-rule="evenodd" clip-rule="evenodd" d="M407.866 53.3146V60.4443C407.866 64.6007 339.395 67.9702 254.933 67.9702C170.47 67.9702 102 64.6007 102 60.4443V53.3146C102 53.047 102.284 52.7827 102.837 52.5224C110.881 56.3064 175.907 59.256 254.933 59.256C333.958 59.256 398.984 56.3064 407.029 52.5224C407.582 52.7828 407.866 53.047 407.866 53.3146Z" fill="#33190B"/>
<path d="M106.128 60.7612L106.128 16.4776C105.956 12.7015 108.255 3.78091 123.12 3.08954C145.142 2.06526 190.597 0.0220967 254.418 0.000177789C318.238 0.0220967 363.693 2.06526 385.716 3.08954C400.581 3.78091 402.879 12.7015 402.708 16.4776V60.7612C402.708 64.8806 402.193 66.9403 397.559 69H255.452H253.384H111.277C106.643 66.9403 106.128 64.8806 106.128 60.7612Z" fill="#FCF1BB"/>
<path d="M106.128 60.7612L106.128 16.4776C105.956 12.7015 108.255 3.78091 123.12 3.08954C145.142 2.06526 190.597 0.0220967 254.418 0.000177789C318.238 0.0220967 363.693 2.06526 385.716 3.08954C400.581 3.78091 402.879 12.7015 402.708 16.4776V60.7612C402.708 64.8806 402.193 66.9403 397.559 69H255.452H253.384H111.277C106.643 66.9403 106.128 64.8806 106.128 60.7612Z" fill="url(#paint5_linear_20_888)" fill-opacity="0.6" style="mix-blend-mode:darken"/>
<path fill-rule="evenodd" clip-rule="evenodd" d="M407.866 37.8008V30.4334C407.866 26.1385 339.395 22.6567 254.933 22.6567C170.47 22.6567 102 26.1385 102 30.4334V37.8008C102 38.0773 102.284 38.3504 102.837 38.6194C110.881 34.7092 175.907 31.6613 254.933 31.6613C333.958 31.6613 398.984 34.7092 407.029 38.6194C407.582 38.3503 407.866 38.0773 407.866 37.8008Z" fill="#A88545"/>
<path fill-rule="evenodd" clip-rule="evenodd" d="M407.866 37.8008V30.4334C407.866 26.1385 339.395 22.6567 254.933 22.6567C170.47 22.6567 102 26.1385 102 30.4334V37.8008C102 38.0773 102.284 38.3504 102.837 38.6194C110.881 34.7092 175.907 31.6613 254.933 31.6613C333.958 31.6613 398.984 34.7092 407.029 38.6194C407.582 38.3503 407.866 38.0773 407.866 37.8008Z" fill="url(#paint6_linear_20_888)" fill-opacity="0.2"/>
<path fill-rule="evenodd" clip-rule="evenodd" d="M407.866 60.4575V53.0901C407.866 48.7952 339.395 45.3134 254.933 45.3134C170.47 45.3134 102 48.7952 102 53.0901V60.4575C102 60.734 102.284 61.0071 102.837 61.2761C110.882 57.366 175.907 54.3181 254.933 54.3181C333.958 54.3181 398.984 57.366 407.029 61.2761C407.582 61.0071 407.866 60.734 407.866 60.4575Z" fill="#A88545"/>
<path fill-rule="evenodd" clip-rule="evenodd" d="M260.597 11.3284H258.537V0.00423527C259.226 0.00541578 259.913 0.00682986 260.597 0.00847352V11.3284ZM265.746 11.3284H263.687V0.0174919C264.375 0.0198594 265.062 0.022458 265.746 0.0252835V11.3284ZM270.896 11.3284H268.836V0.0396497C269.525 0.0432126 270.211 0.0470037 270.896 0.0510187V11.3284ZM276.045 11.3284H273.985V0.0707694C274.674 0.0755363 275.361 0.0805283 276.045 0.0857408V11.3284ZM281.194 11.3284H279.134V0.110915C279.824 0.116895 280.51 0.123096 281.194 0.129515V11.3284ZM286.343 11.3284H284.284V0.160153C284.973 0.167356 285.659 0.174776 286.343 0.182409V11.3284ZM291.493 11.3284H289.433V0.218553C290.122 0.22699 290.809 0.235639 291.493 0.244496V11.3284ZM296.642 11.3284H294.582V0.286191C295.272 0.295871 295.958 0.305759 296.642 0.31585V11.3284ZM301.791 11.3284H299.731V0.363143C300.421 0.374078 301.108 0.385216 301.791 0.39655V11.3284ZM306.94 11.3284H304.881V0.44949C305.571 0.461693 306.257 0.474091 306.94 0.486678V11.3284ZM312.09 11.3284H310.03V0.545317C310.72 0.5588 311.407 0.57247 312.09 0.586321V11.3284ZM317.239 11.3284H315.179V0.650711C315.87 0.665487 316.556 0.680442 317.239 0.695568V11.3284ZM322.388 11.3284H320.328V0.765764C321.019 0.781847 321.706 0.798099 322.388 0.81451V11.3284ZM327.537 11.3284H325.478V0.890568C326.169 0.907973 326.855 0.925534 327.537 0.943241V11.3284ZM332.687 11.3284H330.627V1.02522C331.318 1.04396 332.005 1.06284 332.687 1.08186V11.3284ZM337.836 11.3284H335.776V1.16981C336.468 1.1899 337.154 1.21012 337.836 1.23045V11.3284ZM342.985 11.3284H340.925V1.32443C341.618 1.34589 342.304 1.36746 342.985 1.38911V11.3284ZM348.134 11.3284H346.075V1.48917C346.767 1.51201 347.454 1.53493 348.134 1.55791V11.3284ZM353.284 11.3284H351.224V1.66408C351.917 1.68833 352.604 1.71261 353.284 1.73691V11.3284ZM358.433 11.3284H356.373V1.84922C357.067 1.87487 357.754 1.90052 358.433 1.92614V11.3284ZM363.582 11.3284H361.522V2.04458C362.218 2.07165 362.904 2.09865 363.582 2.12557V11.3284ZM368.731 11.3284H366.672V2.25006C367.368 2.27854 368.055 2.30687 368.731 2.33504V11.3284ZM373.881 11.3284H371.821V2.46542C372.52 2.49529 373.206 2.5249 373.881 2.55422V11.3284ZM379.03 11.3284H376.97V2.69012C377.672 2.72133 378.358 2.7521 379.03 2.7824V11.3284ZM384.179 11.3284H382.119V2.92304C382.825 2.95545 383.512 2.98713 384.179 3.01803V11.3284ZM389.328 11.3284H387.269V3.19502C387.987 3.26004 388.673 3.34554 389.328 3.44969V11.3284ZM394.478 11.3284H392.418V4.13626C393.154 4.35213 393.839 4.59545 394.478 4.86197V11.3284ZM253.388 11.3284V0.000529735L254.418 0L255.448 0.000529778V11.3284H253.388ZM250.299 11.3284H248.239V0.00847337C248.923 0.00682972 249.61 0.00541566 250.299 0.00423516V11.3284ZM245.149 11.3284H243.09V0.0252833C243.774 0.0224578 244.46 0.0198592 245.149 0.0174917V11.3284ZM240 11.3284H237.94V0.0510183C238.624 0.0470034 239.311 0.0432123 240 0.0396494V11.3284ZM234.851 11.3284H232.791V0.0857403C233.475 0.0805279 234.162 0.0755359 234.851 0.070769V11.3284ZM229.702 11.3284H227.642V0.129514C228.326 0.123096 229.012 0.116894 229.702 0.110914V11.3284ZM224.552 11.3284H222.493V0.182409C223.176 0.174776 223.863 0.167355 224.552 0.160152V11.3284ZM219.403 11.3284H217.343V0.244495C218.027 0.235638 218.714 0.226989 219.403 0.218553V11.3284ZM214.254 11.3284H212.194V0.315849C212.878 0.305759 213.564 0.29587 214.254 0.28619V11.3284ZM209.105 11.3284H207.045V0.396549C207.728 0.385215 208.415 0.374078 209.105 0.363142V11.3284ZM203.955 11.3284H201.896V0.486677C202.579 0.47409 203.265 0.461692 203.955 0.449489V11.3284ZM198.806 11.3284H196.746V0.586321C197.429 0.572469 198.116 0.558799 198.806 0.545316V11.3284ZM193.657 11.3284H191.597V0.695567C192.28 0.680441 192.966 0.665486 193.657 0.65071V11.3284ZM188.507 11.3284H186.448V0.814509C187.13 0.798098 187.817 0.781846 188.507 0.765763V11.3284ZM183.358 11.3284H181.299V0.94324C181.981 0.925533 182.667 0.907972 183.358 0.890567V11.3284ZM178.209 11.3284H176.149V1.08186C176.831 1.06284 177.518 1.04396 178.209 1.02522V11.3284ZM173.06 11.3284H171V1.23045C171.681 1.21012 172.368 1.1899 173.06 1.16981V11.3284ZM167.91 11.3284H165.851V1.38911C166.532 1.36745 167.218 1.34589 167.91 1.32443V11.3284ZM162.761 11.3284H160.702V1.55791C161.382 1.53493 162.068 1.51201 162.761 1.48916V11.3284ZM157.612 11.3284H155.552V1.73691C156.232 1.71261 156.919 1.68832 157.612 1.66408V11.3284ZM152.463 11.3284H150.403V1.92614C151.082 1.90052 151.768 1.87487 152.463 1.84922V11.3284ZM147.313 11.3284H145.254V2.12557C145.932 2.09865 146.618 2.07165 147.313 2.04458V11.3284ZM142.164 11.3284H140.105V2.33504C140.781 2.30687 141.467 2.27854 142.164 2.25006V11.3284ZM137.015 11.3284H134.955V2.55422C135.63 2.5249 136.316 2.49529 137.015 2.46542V11.3284ZM131.866 11.3284H129.806V2.7824C130.478 2.75211 131.164 2.72133 131.866 2.69012V11.3284ZM126.716 11.3284H124.657L124.657 3.01803C125.324 2.98714 126.01 2.95545 126.716 2.92304V11.3284ZM121.567 11.3284H119.507L119.507 3.44969C120.163 3.34554 120.849 3.26004 121.567 3.19502L121.567 11.3284ZM116.418 11.3284H114.358L114.358 4.86197C114.997 4.59545 115.682 4.35213 116.418 4.13627L116.418 11.3284ZM111.269 11.3284H109.209V8.37509C109.789 7.74021 110.471 7.12833 111.269 6.55974L111.269 11.3284ZM399.627 11.3284H397.567V6.55973C398.365 7.12832 399.047 7.7402 399.627 8.37508V11.3284Z" fill="#A88545"/>
<path fill-rule="evenodd" clip-rule="evenodd" d="M261.627 12.3582H259.567V1.03408C260.256 1.03526 260.942 1.03668 261.627 1.03832V12.3582ZM266.776 12.3582H264.716V1.04734C265.405 1.04971 266.092 1.0523 266.776 1.05513V12.3582ZM271.925 12.3582H269.866V1.0695C270.555 1.07306 271.241 1.07685 271.925 1.08086V12.3582ZM277.075 12.3582H275.015V1.10062C275.704 1.10538 276.391 1.11037 277.075 1.11559V12.3582ZM282.224 12.3582H280.164V1.14076C280.853 1.14674 281.54 1.15294 282.224 1.15936V12.3582ZM287.373 12.3582H285.313V1.19C286.003 1.1972 286.689 1.20462 287.373 1.21226V12.3582ZM292.522 12.3582H290.463V1.2484C291.152 1.25684 291.839 1.26549 292.522 1.27434V12.3582ZM297.672 12.3582H295.612V1.31604C296.301 1.32572 296.988 1.33561 297.672 1.3457V12.3582ZM302.821 12.3582H300.761V1.39299C301.451 1.40392 302.137 1.41506 302.821 1.4264V12.3582ZM307.97 12.3582H305.91V1.47934C306.6 1.49154 307.287 1.50394 307.97 1.51652V12.3582ZM313.119 12.3582H311.06V1.57516C311.75 1.58865 312.436 1.60232 313.119 1.61617V12.3582ZM318.269 12.3582H316.209V1.68056C316.899 1.69533 317.586 1.71029 318.269 1.72541V12.3582ZM323.418 12.3582H321.358V1.79561C322.049 1.81169 322.735 1.82794 323.418 1.84436V12.3582ZM328.567 12.3582H326.507V1.92041C327.198 1.93782 327.885 1.95538 328.567 1.97309V12.3582ZM333.716 12.3582H331.657V2.05506C332.348 2.07381 333.035 2.09269 333.716 2.1117V12.3582ZM338.866 12.3582H336.806V2.19965C337.498 2.21975 338.184 2.23997 338.866 2.26029V12.3582ZM344.015 12.3582H341.955V2.35428C342.647 2.37574 343.334 2.3973 344.015 2.41895V12.3582ZM349.164 12.3582H347.104V2.51901C347.797 2.54186 348.484 2.56478 349.164 2.58775V12.3582ZM354.313 12.3582H352.254V2.69393C352.947 2.71817 353.634 2.74245 354.313 2.76676V12.3582ZM359.463 12.3582H357.403V2.87907C358.097 2.90472 358.784 2.93037 359.463 2.95599V12.3582ZM364.612 12.3582H362.552V3.07442C363.248 3.10149 363.934 3.1285 364.612 3.15541V12.3582ZM369.761 12.3582H367.701V3.27991C368.398 3.30838 369.085 3.33672 369.761 3.36488V12.3582ZM374.91 12.3582H372.851V3.49526C373.549 3.52514 374.236 3.55475 374.91 3.58407V12.3582ZM380.06 12.3582H378V3.71997C378.701 3.75118 379.388 3.78195 380.06 3.81225V12.3582ZM385.209 12.3582H383.149V3.95289C383.855 3.98529 384.542 4.01698 385.209 4.04788V12.3582ZM390.358 12.3582H388.298V4.22487C389.017 4.28989 389.703 4.37538 390.358 4.47954V12.3582ZM395.507 12.3582H393.448V5.16611C394.184 5.38197 394.869 5.62529 395.507 5.89182V12.3582ZM254.418 12.3582V1.03038L255.448 1.02985L256.478 1.03038V12.3582H254.418ZM251.328 12.3582H249.269V1.03832C249.953 1.03668 250.64 1.03526 251.328 1.03408V12.3582ZM246.179 12.3582H244.119V1.05513C244.804 1.0523 245.49 1.04971 246.179 1.04734V12.3582ZM241.03 12.3582H238.97V1.08086C239.654 1.07685 240.341 1.07306 241.03 1.0695V12.3582ZM235.881 12.3582H233.821V1.11559C234.505 1.11037 235.191 1.10538 235.881 1.10062V12.3582ZM230.731 12.3582H228.672V1.15936C229.356 1.15294 230.042 1.14674 230.731 1.14076V12.3582ZM225.582 12.3582H223.522V1.21225C224.206 1.20462 224.893 1.1972 225.582 1.19V12.3582ZM220.433 12.3582H218.373V1.27434C219.057 1.26548 219.743 1.25684 220.433 1.2484V12.3582ZM215.284 12.3582H213.224V1.3457C213.907 1.3356 214.594 1.32572 215.284 1.31604V12.3582ZM210.134 12.3582H208.075V1.4264C208.758 1.41506 209.445 1.40392 210.134 1.39299V12.3582ZM204.985 12.3582H202.925V1.51652C203.609 1.50394 204.295 1.49154 204.985 1.47934V12.3582ZM199.836 12.3582H197.776V1.61617C198.459 1.60232 199.146 1.58865 199.836 1.57516V12.3582ZM194.687 12.3582H192.627V1.72541C193.31 1.71029 193.996 1.69533 194.687 1.68056V12.3582ZM189.537 12.3582H187.478V1.84436C188.16 1.82794 188.847 1.81169 189.537 1.79561V12.3582ZM184.388 12.3582H182.328V1.97309C183.01 1.95538 183.697 1.93782 184.388 1.92041V12.3582ZM179.239 12.3582H177.179V2.1117C177.861 2.09269 178.547 2.07381 179.239 2.05506V12.3582ZM174.09 12.3582H172.03V2.26029C172.711 2.23997 173.398 2.21975 174.09 2.19965V12.3582ZM168.94 12.3582H166.881V2.41895C167.562 2.3973 168.248 2.37574 168.94 2.35428V12.3582ZM163.791 12.3582H161.731V2.58775C162.412 2.56478 163.098 2.54186 163.791 2.51901V12.3582ZM158.642 12.3582H156.582V2.76676C157.262 2.74245 157.948 2.71817 158.642 2.69393V12.3582ZM153.493 12.3582H151.433V2.95599C152.112 2.93037 152.798 2.90472 153.493 2.87907V12.3582ZM148.343 12.3582H146.284V3.15541C146.961 3.1285 147.648 3.10149 148.343 3.07442V12.3582ZM143.194 12.3582H141.134V3.36488C141.811 3.33672 142.497 3.30838 143.194 3.27991V12.3582ZM138.045 12.3582H135.985V3.58407C136.659 3.55475 137.346 3.52514 138.045 3.49526V12.3582ZM132.895 12.3582H130.836V3.81225C131.507 3.78195 132.194 3.75118 132.895 3.71997V12.3582ZM127.746 12.3582H125.687L125.687 4.04788C126.354 4.01698 127.04 3.98529 127.746 3.95289V12.3582ZM122.597 12.3582H120.537L120.537 4.47954C121.193 4.37539 121.879 4.28989 122.597 4.22487L122.597 12.3582ZM117.448 12.3582H115.388L115.388 5.89182C116.026 5.6253 116.712 5.38198 117.448 5.16611L117.448 12.3582ZM112.298 12.3582H110.239V9.40494C110.819 8.77005 111.501 8.15818 112.298 7.58958L112.298 12.3582ZM400.657 12.3582H398.597V7.58958C399.395 8.15817 400.076 8.77004 400.657 9.40493V12.3582Z" fill="#FDECB9" fill-opacity="0.8"/>
<path d="M106.128 60.7612L106.128 16.4776C105.956 12.7015 108.255 3.78091 123.12 3.08954C145.142 2.06526 190.597 0.0220967 254.418 0.000177789C318.238 0.0220967 363.693 2.06526 385.716 3.08954C400.581 3.78091 402.879 12.7015 402.708 16.4776V60.7612C402.708 64.8806 402.193 66.9403 397.559 69H255.452H253.384H111.277C106.643 66.9403 106.128 64.8806 106.128 60.7612Z" fill="url(#paint7_linear_20_888)" fill-opacity="0.8"/>
<path fill-rule="evenodd" clip-rule="evenodd" d="M407.866 29.7414V33.4701C407.866 29.5573 339.395 26.3854 254.933 26.3854C170.47 26.3854 102 29.5573 102 33.4701V29.7414C102 25.8286 170.47 22.6567 254.933 22.6567C339.395 22.6567 407.866 25.8286 407.866 29.7414Z" fill="url(#paint8_linear_20_888)"/>
<path fill-rule="evenodd" clip-rule="evenodd" d="M407.866 33.4701V37.8008C407.866 38.0773 407.582 38.3503 407.029 38.6194C398.984 34.7092 333.958 31.6613 254.933 31.6613C175.907 31.6613 110.881 34.7092 102.837 38.6194C102.284 38.3504 102 38.0773 102 37.8008V33.4701V30.4334V29.7414C102 25.8286 170.47 22.6567 254.933 22.6567C339.395 22.6567 407.866 25.8286 407.866 29.7414V30.4334V33.4701Z" fill="url(#paint9_linear_20_888)"/>
<path fill-rule="evenodd" clip-rule="evenodd" d="M407.866 33.4701V37.8008C407.866 38.0773 407.582 38.3503 407.029 38.6194C398.984 34.7092 333.958 31.6613 254.933 31.6613C175.907 31.6613 110.881 34.7092 102.837 38.6194C102.284 38.3504 102 38.0773 102 37.8008V33.4701V30.4334V29.7414C102 25.8286 170.47 22.6567 254.933 22.6567C339.395 22.6567 407.866 25.8286 407.866 29.7414V30.4334V33.4701Z" fill="url(#paint10_linear_20_888)"/>
<path fill-rule="evenodd" clip-rule="evenodd" d="M407.866 56.1269V60.4575C407.866 60.734 407.582 61.0071 407.029 61.2761C398.984 57.366 333.958 54.3181 254.933 54.3181C175.907 54.3181 110.882 57.366 102.837 61.2761C102.284 61.0071 102 60.734 102 60.4575V56.1269V53.0901V52.3981C102 48.4854 170.47 45.3134 254.933 45.3134C339.395 45.3134 407.866 48.4854 407.866 52.3981V53.0901V56.1269Z" fill="url(#paint11_linear_20_888)"/>
<path fill-rule="evenodd" clip-rule="evenodd" d="M407.866 52.3981V56.1269C407.866 52.2141 339.395 49.0422 254.933 49.0422C170.47 49.0422 102 52.2141 102 56.1269V52.3981C102 48.4854 170.47 45.3134 254.933 45.3134C339.395 45.3134 407.866 48.4854 407.866 52.3981Z" fill="url(#paint12_linear_20_888)"/>
<g filter="url(#filter0_f_20_888)">
<path d="M104.574 60.2467C200.351 52.5224 301.791 51.4925 407.867 60.2466" stroke="#33190B" stroke-opacity="0.68"/>
</g>
<g filter="url(#filter1_f_20_888)">
<path fill-rule="evenodd" clip-rule="evenodd" d="M165.851 32.7993C172.88 38.7363 208.524 43.2537 251.438 43.2537C296.405 43.2537 333.39 38.2938 337.836 31.938C315.979 31.2754 290.523 30.8955 263.349 30.8955C225.966 30.8955 191.834 31.6145 165.851 32.7993Z" fill="#875A14"/>
</g>
<g filter="url(#filter2_f_20_888)">
<path fill-rule="evenodd" clip-rule="evenodd" d="M186.448 13.864C191.667 15.3482 218.133 16.4776 249.998 16.4776C283.386 16.4776 310.848 15.2376 314.149 13.6487C297.92 13.483 279.018 13.3881 258.841 13.3881C231.084 13.3881 205.741 13.5678 186.448 13.864Z" fill="#875A14"/>
</g>
<g filter="url(#filter3_f_20_888)">
<path fill-rule="evenodd" clip-rule="evenodd" d="M186.448 56.0879C191.667 57.5721 218.133 58.7014 249.998 58.7014C283.386 58.7014 310.848 57.4615 314.149 55.8726C297.92 55.7069 279.018 55.6119 258.841 55.6119C231.084 55.6119 205.741 55.7917 186.448 56.0879Z" fill="#875A14"/>
</g>
<g filter="url(#filter4_f_20_888)">
<path fill-rule="evenodd" clip-rule="evenodd" d="M400.657 13.3881C379.108 13.4421 359.59 13.6053 344.015 13.8444C348.852 15.22 371.938 16.2907 400.657 16.4401V13.3881Z" fill="#875A14"/>
</g>
<g filter="url(#filter5_f_20_888)">
<path fill-rule="evenodd" clip-rule="evenodd" d="M109.209 14.4179C130.757 14.4719 150.276 14.6352 165.851 14.8743C161.014 16.2498 137.928 17.3205 109.209 17.47V14.4179Z" fill="#875A14"/>
</g>
<g filter="url(#filter6_f_20_888)">
<path fill-rule="evenodd" clip-rule="evenodd" d="M108.179 41.1549C126.942 41.7057 143.941 42.0683 157.511 42.228C153.354 40.4504 133.296 38.5152 108.298 37.5172L108.179 41.1549Z" fill="#875A14"/>
</g>
<g filter="url(#filter7_f_20_888)">
<path d="M104.574 37.59C200.351 29.8657 301.791 28.8358 407.867 37.5899" stroke="#33190B" stroke-opacity="0.68" stroke-width="2"/>
</g>
<g filter="url(#filter8_f_20_888)">
<path fill-rule="evenodd" clip-rule="evenodd" d="M403.746 37.2972V39.8648C403.746 40.0286 403.472 40.1903 402.937 40.3497C395.164 38.0338 332.327 36.2286 255.963 36.2286C179.598 36.2286 116.762 38.0338 108.988 40.3497C108.453 40.1903 108.179 40.0286 108.179 39.8648V39.0667V35.5014V35.0915C108.179 32.7741 174.344 30.8955 255.963 30.8955C337.581 30.8955 403.746 32.7741 403.746 35.0915V35.5014V37.2972Z" fill="#33190B" fill-opacity="0.68"/>
</g>
<g filter="url(#filter9_f_20_888)">
<path fill-rule="evenodd" clip-rule="evenodd" d="M400.657 59.9567V62.5216C400.657 62.6853 400.383 62.8471 399.848 63.0064C392.074 60.6905 329.238 58.8853 252.873 58.8853C176.508 58.8853 113.672 60.6905 105.899 63.0064C105.364 62.8471 105.09 62.6853 105.09 62.5216V61.7234V58.1581V57.7483C105.09 55.4309 171.255 53.5522 252.873 53.5522C334.492 53.5522 400.657 55.4309 400.657 57.7483V58.1581V59.9567Z" fill="#33190B" fill-opacity="0.68"/>
</g>
<g filter="url(#filter10_df_20_888)">
<line x1="114" y1="68.5" x2="395" y2="68.5" stroke="#33190B" stroke-opacity="0.68" shape-rendering="crispEdges"/>
</g>
<defs>
<filter id="filter0_f_20_888" x="102.534" y="51.5612" width="307.374" height="11.1838" filterUnits="userSpaceOnUse" color-interpolation-filters="sRGB">
<feFlood flood-opacity="0" result="BackgroundImageFix"/>
<feBlend mode="normal" in="SourceGraphic" in2="BackgroundImageFix" result="shape"/>
<feGaussianBlur stdDeviation="1" result="effect1_foregroundBlur_20_888"/>
</filter>
<filter id="filter1_f_20_888" x="159.851" y="24.8955" width="183.985" height="24.3582" filterUnits="userSpaceOnUse" color-interpolation-filters="sRGB">
<feFlood flood-opacity="0" result="BackgroundImageFix"/>
<feBlend mode="normal" in="SourceGraphic" in2="BackgroundImageFix" result="shape"/>
<feGaussianBlur stdDeviation="3" result="effect1_foregroundBlur_20_888"/>
</filter>
<filter id="filter2_f_20_888" x="182.448" y="9.38806" width="135.701" height="11.0895" filterUnits="userSpaceOnUse" color-interpolation-filters="sRGB">
<feFlood flood-opacity="0" result="BackgroundImageFix"/>
<feBlend mode="normal" in="SourceGraphic" in2="BackgroundImageFix" result="shape"/>
<feGaussianBlur stdDeviation="2" result="effect1_foregroundBlur_20_888"/>
</filter>
<filter id="filter3_f_20_888" x="182.448" y="51.6119" width="135.701" height="11.0895" filterUnits="userSpaceOnUse" color-interpolation-filters="sRGB">
<feFlood flood-opacity="0" result="BackgroundImageFix"/>
<feBlend mode="normal" in="SourceGraphic" in2="BackgroundImageFix" result="shape"/>
<feGaussianBlur stdDeviation="2" result="effect1_foregroundBlur_20_888"/>
</filter>
<filter id="filter4_f_20_888" x="340.015" y="9.38806" width="64.6418" height="11.0521" filterUnits="userSpaceOnUse" color-interpolation-filters="sRGB">
<feFlood flood-opacity="0" result="BackgroundImageFix"/>
<feBlend mode="normal" in="SourceGraphic" in2="BackgroundImageFix" result="shape"/>
<feGaussianBlur stdDeviation="2" result="effect1_foregroundBlur_20_888"/>
</filter>
<filter id="filter5_f_20_888" x="105.209" y="10.4179" width="64.6418" height="11.0521" filterUnits="userSpaceOnUse" color-interpolation-filters="sRGB">
<feFlood flood-opacity="0" result="BackgroundImageFix"/>
<feBlend mode="normal" in="SourceGraphic" in2="BackgroundImageFix" result="shape"/>
<feGaussianBlur stdDeviation="2" result="effect1_foregroundBlur_20_888"/>
</filter>
<filter id="filter6_f_20_888" x="104.179" y="33.5172" width="57.3313" height="12.7107" filterUnits="userSpaceOnUse" color-interpolation-filters="sRGB">
<feFlood flood-opacity="0" result="BackgroundImageFix"/>
<feBlend mode="normal" in="SourceGraphic" in2="BackgroundImageFix" result="shape"/>
<feGaussianBlur stdDeviation="2" result="effect1_foregroundBlur_20_888"/>
</filter>
<filter id="filter7_f_20_888" x="102.494" y="28.4045" width="307.455" height="12.1822" filterUnits="userSpaceOnUse" color-interpolation-filters="sRGB">
<feFlood flood-opacity="0" result="BackgroundImageFix"/>
<feBlend mode="normal" in="SourceGraphic" in2="BackgroundImageFix" result="shape"/>
<feGaussianBlur stdDeviation="1" result="effect1_foregroundBlur_20_888"/>
</filter>
<filter id="filter8_f_20_888" x="104.179" y="26.8955" width="303.567" height="17.4542" filterUnits="userSpaceOnUse" color-interpolation-filters="sRGB">
<feFlood flood-opacity="0" result="BackgroundImageFix"/>
<feBlend mode="normal" in="SourceGraphic" in2="BackgroundImageFix" result="shape"/>
<feGaussianBlur stdDeviation="2" result="effect1_foregroundBlur_20_888"/>
</filter>
<filter id="filter9_f_20_888" x="101.09" y="49.5522" width="303.567" height="17.4542" filterUnits="userSpaceOnUse" color-interpolation-filters="sRGB">
<feFlood flood-opacity="0" result="BackgroundImageFix"/>
<feBlend mode="normal" in="SourceGraphic" in2="BackgroundImageFix" result="shape"/>
<feGaussianBlur stdDeviation="2" result="effect1_foregroundBlur_20_888"/>
</filter>
<filter id="filter10_df_20_888" x="110" y="66" width="289" height="11" filterUnits="userSpaceOnUse" color-interpolation-filters="sRGB">
<feFlood flood-opacity="0" result="BackgroundImageFix"/>
<feColorMatrix in="SourceAlpha" type="matrix" values="0 0 0 0 0 0 0 0 0 0 0 0 0 0 0 0 0 0 127 0" result="hardAlpha"/>
<feOffset dy="4"/>
<feGaussianBlur stdDeviation="2"/>
<feComposite in2="hardAlpha" operator="out"/>
<feColorMatrix type="matrix" values="0 0 0 0 0 0 0 0 0 0 0 0 0 0 0 0 0 0 0.25 0"/>
<feBlend mode="normal" in2="BackgroundImageFix" result="effect1_dropShadow_20_888"/>
<feBlend mode="normal" in="SourceGraphic" in2="effect1_dropShadow_20_888" result="shape"/>
<feGaussianBlur stdDeviation="1" result="effect2_foregroundBlur_20_888"/>
</filter>
<linearGradient id="paint0_linear_20_888" x1="28" y1="326" x2="482" y2="326" gradientUnits="userSpaceOnUse">
<stop stop-color="white" stop-opacity="0.71"/>
<stop offset="0.120844" stop-color="white" stop-opacity="0"/>
<stop offset="0.880208" stop-color="white" stop-opacity="0"/>
<stop offset="1" stop-color="white" stop-opacity="0.81"/>
</linearGradient>
<linearGradient id="paint1_linear_20_888" x1="128.88" y1="147" x2="128.88" y2="544" gradientUnits="userSpaceOnUse">
<stop stop-color="white"/>
<stop offset="1" stop-color="white" stop-opacity="0"/>
</linearGradient>
<linearGradient id="paint2_linear_20_888" x1="372.035" y1="147" x2="372.035" y2="544" gradientUnits="userSpaceOnUse">
<stop stop-color="white"/>
<stop offset="1" stop-color="white" stop-opacity="0"/>
</linearGradient>
<linearGradient id="paint3_linear_20_888" x1="254.5" y1="67" x2="254.5" y2="582" gradientUnits="userSpaceOnUse">
<stop stop-color="white"/>
<stop offset="1" stop-color="white" stop-opacity="0"/>
</linearGradient>
<linearGradient id="paint4_linear_20_888" x1="254.5" y1="67" x2="254.5" y2="582" gradientUnits="userSpaceOnUse">
<stop stop-color="white"/>
<stop offset="1" stop-color="white" stop-opacity="0"/>
</linearGradient>
<linearGradient id="paint5_linear_20_888" x1="106.119" y1="33.9851" x2="402.716" y2="33.9851" gradientUnits="userSpaceOnUse">
<stop stop-color="#33190B"/>
<stop offset="0.109375" stop-color="#FDF1BF"/>
<stop offset="0.28125" stop-color="#FCF0BE"/>
<stop offset="0.395833" stop-color="#33190B"/>
<stop offset="0.526042" stop-color="#33190B"/>
<stop offset="0.661458" stop-color="#FCF1BB"/>
<stop offset="0.833333" stop-color="#FDF5C7"/>
<stop offset="0.984375" stop-color="#2D1A0A"/>
</linearGradient>
<linearGradient id="paint6_linear_20_888" x1="102" y1="38.1044" x2="407.866" y2="38.1044" gradientUnits="userSpaceOnUse">
<stop/>
<stop offset="1" stop-opacity="0"/>
</linearGradient>
<linearGradient id="paint7_linear_20_888" x1="106.119" y1="33.9851" x2="402.716" y2="33.9851" gradientUnits="userSpaceOnUse">
<stop stop-color="#7A4A02"/>
<stop offset="0.0520833" stop-color="#FFEC9E"/>
<stop offset="0.28125" stop-color="#FFE88A"/>
<stop offset="0.411458" stop-color="#875A14"/>
<stop offset="0.473958" stop-color="#875A14"/>
<stop offset="0.661458" stop-color="#FEEB8C"/>
<stop offset="0.942708" stop-color="#FFED85"/>
<stop offset="0.984375" stop-color="#81530C"/>
</linearGradient>
<linearGradient id="paint8_linear_20_888" x1="107.664" y1="27.877" x2="407.866" y2="27.877" gradientUnits="userSpaceOnUse">
<stop stop-color="#FCF1BB" stop-opacity="0"/>
<stop offset="0.144013" stop-color="#FCF1BB"/>
<stop offset="0.8125" stop-color="#FCF1BB"/>
<stop offset="0.979167" stop-color="#FCF1BB" stop-opacity="0"/>
</linearGradient>
<linearGradient id="paint9_linear_20_888" x1="107.664" y1="27.877" x2="407.866" y2="27.877" gradientUnits="userSpaceOnUse">
<stop stop-color="#33190B"/>
<stop offset="0.144013" stop-color="#FFE97C" stop-opacity="0.22"/>
<stop offset="0.8125" stop-color="#FFE770" stop-opacity="0.56"/>
<stop offset="0.979167" stop-color="#33190B"/>
</linearGradient>
<linearGradient id="paint10_linear_20_888" x1="107.664" y1="27.877" x2="407.866" y2="27.877" gradientUnits="userSpaceOnUse">
<stop stop-color="#33190B"/>
<stop offset="0.144013" stop-color="#FFE97C" stop-opacity="0.22"/>
<stop offset="0.8125" stop-color="#FFE770" stop-opacity="0.56"/>
<stop offset="0.979167" stop-color="#33190B"/>
</linearGradient>
<linearGradient id="paint11_linear_20_888" x1="107.664" y1="50.5337" x2="407.866" y2="50.5338" gradientUnits="userSpaceOnUse">
<stop stop-color="#33190B"/>
<stop offset="0.144013" stop-color="#FFE460" stop-opacity="0.22"/>
<stop offset="0.8125" stop-color="#FFE461" stop-opacity="0.56"/>
<stop offset="0.979167" stop-color="#33190B"/>
</linearGradient>
<linearGradient id="paint12_linear_20_888" x1="107.664" y1="50.5337" x2="407.866" y2="50.5338" gradientUnits="userSpaceOnUse">
<stop stop-color="#FFE251" stop-opacity="0"/>
<stop offset="0.144013" stop-color="#FFEF9F"/>
<stop offset="0.8125" stop-color="#FFEC92"/>
<stop offset="0.979167" stop-color="#FFDC33" stop-opacity="0"/>
</linearGradient>
</defs>
</svg>
