<svg width="192" height="192" viewBox="0 0 192 192" fill="none" xmlns="http://www.w3.org/2000/svg">
<g clip-path="url(#clip0_30_54)">
<path d="M96 132C115.882 132 132 115.882 132 96C132 76.1177 115.882 60 96 60C76.1177 60 60 76.1177 60 96C60 115.882 76.1177 132 96 132Z" stroke="white" stroke-width="9" stroke-linecap="round" stroke-linejoin="round"/>
<path d="M137.775 48.825C139.675 50.575 141.475 52.375 143.175 54.225L163.65 57.15C166.986 62.9437 169.557 69.1454 171.3 75.6L158.85 92.175C158.85 92.175 159.075 97.275 158.85 99.825L171.3 116.4C169.566 122.857 166.994 129.06 163.65 134.85L143.175 137.775C143.175 137.775 139.65 141.45 137.775 143.175L134.85 163.65C129.056 166.986 122.855 169.557 116.4 171.3L99.825 158.85C97.2799 159.075 94.72 159.075 92.175 158.85L75.6 171.3C69.1426 169.566 62.94 166.994 57.15 163.65L54.225 143.175C52.375 141.425 50.575 139.625 48.825 137.775L28.35 134.85C25.0138 129.056 22.4424 122.855 20.7 116.4L33.15 99.825C33.15 99.825 32.925 94.725 33.15 92.175L20.7 75.6C22.4343 69.1426 25.0062 62.94 28.35 57.15L48.825 54.225C50.575 52.375 52.375 50.575 54.225 48.825L57.15 28.35C62.9437 25.0138 69.1454 22.4424 75.6 20.7L92.175 33.15C94.72 32.9249 97.2799 32.9249 99.825 33.15L116.4 20.7C122.857 22.4343 129.06 25.0062 134.85 28.35L137.775 48.825Z" fill="url(#paint0_linear_30_54)" stroke="white" stroke-width="9" stroke-linecap="round" stroke-linejoin="round"/>
</g>
<defs>
<linearGradient id="paint0_linear_30_54" x1="95.9999" y1="20.7" x2="96" y2="129" gradientUnits="userSpaceOnUse">
<stop stop-color="#F5F5F5" stop-opacity="0.8"/>
<stop offset="1" stop-color="#D9D9D9" stop-opacity="0"/>
</linearGradient>
<clipPath id="clip0_30_54">
<rect width="192" height="192" fill="white"/>
</clipPath>
</defs>
</svg>
